<svg xmlns="http://www.w3.org/2000/svg" viewBox="0 0 32 48" width="32" height="48">
  <!-- Shadow -->
  <ellipse cx="16" cy="46" rx="8" ry="3" fill="rgba(0,0,0,0.2)"/>
  <!-- Feet -->
  <ellipse cx="12" cy="44" rx="4" ry="2" fill="#2D3436"/>
  <ellipse cx="20" cy="44" rx="4" ry="2" fill="#2D3436"/>
  <!-- Legs/Pants -->
  <rect x="10" y="32" width="5" height="12" rx="2" fill="#2D3436"/>
  <rect x="17" y="32" width="5" height="12" rx="2" fill="#2D3436"/>
  <!-- Body/Shirt -->
  <rect x="8" y="20" width="16" height="14" rx="3" fill="#4ECDC4"/>
  <!-- Arms -->
  <rect x="4" y="22" width="5" height="10" rx="2" fill="#4ECDC4"/>
  <rect x="23" y="22" width="5" height="10" rx="2" fill="#4ECDC4"/>
  <!-- Hands -->
  <circle cx="6" cy="33" r="3" fill="#FFEAA7"/>
  <circle cx="26" cy="33" r="3" fill="#FFEAA7"/>
  <!-- Neck -->
  <rect x="14" y="16" width="4" height="5" fill="#FFEAA7"/>
  <!-- Head -->
  <circle cx="16" cy="12" r="8" fill="#FFEAA7"/>
  <!-- Hair -->
  <path d="M8 10 Q8 4 16 4 Q24 4 24 10 Q24 8 16 8 Q8 8 8 10" fill="#5D4037"/>
  <!-- Eyes -->
  <circle cx="13" cy="11" r="1.5" fill="#000"/>
  <circle cx="19" cy="11" r="1.5" fill="#000"/>
  <!-- Smile -->
  <path d="M13 15 Q16 18 19 15" stroke="#000" stroke-width="1" fill="none"/>
</svg>
