<svg xmlns="http://www.w3.org/2000/svg" viewBox="0 0 32 48" width="32" height="48">
  <!-- Shadow -->
  <ellipse cx="16" cy="46" rx="8" ry="3" fill="rgba(0,0,0,0.2)"/>
  <!-- Feet/Boots -->
  <ellipse cx="12" cy="44" rx="4" ry="2" fill="#5D4037"/>
  <ellipse cx="20" cy="44" rx="4" ry="2" fill="#5D4037"/>
  <!-- Legs/Pants (khaki) -->
  <rect x="10" y="32" width="5" height="12" rx="2" fill="#8D6E63"/>
  <rect x="17" y="32" width="5" height="12" rx="2" fill="#8D6E63"/>
  <!-- Body/Shirt (green uniform) -->
  <rect x="8" y="20" width="16" height="14" rx="3" fill="#2E7D32"/>
  <!-- Arms -->
  <rect x="4" y="22" width="5" height="10" rx="2" fill="#2E7D32"/>
  <rect x="23" y="22" width="5" height="10" rx="2" fill="#2E7D32"/>
  <!-- Hands -->
  <circle cx="6" cy="33" r="3" fill="#FFCCBC"/>
  <circle cx="26" cy="33" r="3" fill="#FFCCBC"/>
  <!-- Bucket in hand -->
  <rect x="22" y="34" width="8" height="6" rx="1" fill="#757575"/>
  <rect x="22" y="33" width="8" height="2" fill="#9E9E9E"/>
  <!-- Neck -->
  <rect x="14" y="16" width="4" height="5" fill="#FFCCBC"/>
  <!-- Head -->
  <circle cx="16" cy="12" r="8" fill="#FFCCBC"/>
  <!-- Hat -->
  <rect x="8" y="4" width="16" height="6" rx="2" fill="#1B5E20"/>
  <rect x="6" y="8" width="20" height="3" fill="#1B5E20"/>
  <!-- Eyes -->
  <circle cx="13" cy="12" r="1.5" fill="#000"/>
  <circle cx="19" cy="12" r="1.5" fill="#000"/>
  <!-- Smile -->
  <path d="M13 16 Q16 18 19 16" stroke="#000" stroke-width="1" fill="none"/>
</svg>
